<svg xmlns="http://www.w3.org/2000/svg" viewBox="0 0 1100.36 677.26">
    <defs>
        <style>
            .cls-1{fill:#454545;stroke:#8b62a6;}.cls-1,.cls-11,.cls-2,.cls-4,.cls-6{stroke-miterlimit:10;}.cls-1,.cls-2,.cls-3,.cls-4,.cls-5{stroke-width:2px;}.cls-2,.cls-3,.cls-6{fill:#bab9b9;}.cls-2,.cls-3,.cls-4,.cls-5,.cls-6{stroke:#e2e0e0;}.cls-12,.cls-3,.cls-5,.cls-8,.cls-9{stroke-linejoin:round;}.cls-11,.cls-12,.cls-4,.cls-5,.cls-8,.cls-9{fill:none;}.cls-7{fill:#a5a4a3;}.cls-11,.cls-12,.cls-8,.cls-9{stroke:#000;}.cls-12,.cls-8,.cls-9{stroke-linecap:round;}.cls-8{stroke-width:0.5px;}.cls-11,.cls-9{stroke-width:0.75px;}.cls-10{fill:#fff;}.cls-13{fill:#8b62a6;}.cls-14{font-size:7px;}.cls-14,.cls-15,.cls-19,.cls-24,.cls-40,.cls-42,.cls-45,.cls-48,.cls-52,.cls-54{fill:#1d1d1b;font-family:Arial-Black,
            Arial
            Black;font-weight:800;}.cls-15{font-size:5px;}.cls-16{letter-spacing:-0.03em;}.cls-17{letter-spacing:0em;}.cls-18{letter-spacing:-0.03em;}.cls-19{font-size:4px;}.cls-20{letter-spacing:-0.01em;}.cls-21{letter-spacing:0.02em;}.cls-22,.cls-54{letter-spacing:-0.03em;}.cls-23{letter-spacing:-0.03em;}.cls-24{font-size:6px;}.cls-25{letter-spacing:0.02em;}.cls-26{letter-spacing:-0.02em;}.cls-27{letter-spacing:-0.01em;}.cls-28{letter-spacing:0.01em;}.cls-29{letter-spacing:0.02em;}.cls-30{letter-spacing:-0.02em;}.cls-31{letter-spacing:-0.02em;}.cls-32{letter-spacing:-0.02em;}.cls-33{letter-spacing:0.03em;}.cls-34{letter-spacing:-0.07em;}.cls-35{letter-spacing:-0.04em;}.cls-36{letter-spacing:0.02em;}.cls-37{letter-spacing:-0.03em;}.cls-38{letter-spacing:0.02em;}.cls-39{letter-spacing:0em;}.cls-40{font-size:2px;}.cls-41{letter-spacing:0.05em;}.cls-42,.cls-45,.cls-48,.cls-52,.cls-54{font-size:3px;}.cls-43{letter-spacing:-0.06em;}.cls-44{letter-spacing:0.03em;}.cls-45,.cls-58{letter-spacing:-0.02em;}.cls-46{letter-spacing:0em;}.cls-47{letter-spacing:-0.01em;}.cls-48{letter-spacing:-0.06em;}.cls-49{letter-spacing:0.02em;}.cls-50{letter-spacing:0em;}.cls-51{letter-spacing:-0.03em;}.cls-52,.cls-59{letter-spacing:-0.03em;}.cls-53{letter-spacing:0.02em;}.cls-55{letter-spacing:-0.05em;}.cls-56{letter-spacing:0.02em;}.cls-57{letter-spacing:-0.02em;}.cls-60{letter-spacing:0.03em;}.cls-61{letter-spacing:-0.02em;}.cls-62{letter-spacing:0.04em;}.cls-63{letter-spacing:-0.01em;}.cls-64{letter-spacing:-0.08em;}.cls-65{letter-spacing:0.06em;}.cls-66{letter-spacing:-0.08em;}.cls-67{letter-spacing:0.01em;}.cls-68{letter-spacing:-0.02em;}
        </style>
    </defs>
    <g id="Слой_2" data-name="Слой 2">
        <g id="Слой_4" data-name="Слой 4">
        </g>
        <g id="Слой_1-2" data-name="Слой 1">
            <polygon class="cls-2"
                     points="15.52 338.46 157.42 338.46 157.42 436.14 182.58 496.96 154.62 554.11 74.23 554.11 15.52 338.46"/>
            <path class="cls-2" d="M74.23,554.11q14.34,40.27,28.66,80.56l53.83-53.83-2.1-26.73Z"/>
            <polygon class="cls-2"
                     points="187.48 338.46 260.18 338.46 260.18 468.3 211.94 492.77 187.48 429.85 187.48 338.46"/>
            <path class="cls-2" d="M288.84,338.46H260.18V468.3l51.72-39.15V393.5H288.84Z"/>
            <polygon class="cls-2"
                     points="352.45 338.46 352.45 403.38 311.9 429.15 311.9 393.5 288.84 393.5 288.84 338.46 352.45 338.46"/>
            <rect class="cls-2" x="352.45" y="338.46" width="30.06" height="24.6"/>
            <polygon class="cls-2" points="382.51 383.81 352.45 403.38 352.45 363.06 382.51 363.06 382.51 383.81"/>
            <polygon class="cls-2" points="444.72 338.46 382.51 338.46 382.51 363.06 418.16 363.06 444.72 338.46"/>
            <path class="cls-3" d="M382.51,383.81q17.82-10.38,35.65-20.75H382.51Z"/>
            <path class="cls-2" d="M136.45,666.82l71.3-64.31v64.31Z"/>
            <rect class="cls-2" x="207.75" y="602.51" width="25.16" height="64.31"/>
            <rect class="cls-2" x="232.91" y="602.51" width="27.26" height="64.31"/>
            <rect class="cls-2" x="260.18" y="602.51" width="28.66" height="64.31"/>
            <rect class="cls-2" x="288.84" y="602.51" width="27.96" height="64.31"/>
            <path class="cls-2" d="M373.3,666.82H316.8V602.51l56.62.7Z"/>
            <rect class="cls-2" x="373.42" y="603.21" width="55.22" height="63.61"/>
            <rect class="cls-2" x="428.64" y="603.21" width="13.28" height="19.57"/>
            <rect class="cls-2" x="441.92" y="603.21" width="13.28" height="19.57"/>
            <rect class="cls-2" x="455.2" y="603.21" width="13.28" height="19.57"/>
            <polygon class="cls-2"
                     points="483.87 602.51 483.87 622.78 494.58 622.78 494.58 666.82 651.17 666.82 651.17 551.48 631.36 531.68 483.87 602.51"/>
            <polygon class="cls-2"
                     points="637.65 525.85 657.46 545.66 666.31 536.8 676.1 546.59 709.18 513.5 679.36 483.68 637.65 525.85"/>
            <polygon class="cls-2"
                     points="701.5 461.08 679.13 483.45 734.12 538.44 766.5 538.44 766.5 525.39 701.5 461.08"/>
            <rect class="cls-2" x="700.74" y="444.6" width="39.19" height="13.29"
                  transform="translate(-108.09 641.52) rotate(-45)"/>
            <rect class="cls-2" x="712.85" y="453.49" width="39.19" height="19.73"
                  transform="translate(-113.11 653.63) rotate(-45)"/>
            <rect class="cls-2" x="725.97" y="467.78" width="39.19" height="17.39"
                  transform="translate(-118.55 666.75) rotate(-45)"/>
            <rect class="cls-2" x="744.2" y="477.62" width="39.19" height="34.17"
                  transform="translate(-126.1 684.98) rotate(-45)"/>
            <polygon class="cls-2"
                     points="807.05 509.54 789.73 492.93 762.02 520.64 766.5 525.39 807.05 525.39 807.05 509.54"/>
            <path class="cls-2"
                  d="M844.8,509.16H807.05V624.65H942.89V536.34l-26.68-26.68-23.88-.12.47,48.93H845.5Q845.14,533.82,844.8,509.16Z"/>
            <rect class="cls-2" x="845.15" y="509.16" width="24.35" height="49.32"/>
            <rect class="cls-2" x="869.5" y="509.16" width="23.07" height="49.32"/>
            <polygon class="cls-2"
                     points="970.39 533.82 942.89 536.34 942.89 571.99 956.64 571.99 982.15 546.48 970.39 533.82"/>
            <path class="cls-2" d="M995.09,558.47l-12.93-12L956.64,572H942.89v52.66l28.2-.23-.24-41Z"/>
            <path class="cls-2" d="M1005.57,569.89l-10.48-11.42-24.24,24.94.13,22.37Z"/>
            <path class="cls-2" d="M1044.83,608.63l-39.26-38.74L971,605.78l.11,18.64h44.39Z"/>
            <polygon class="cls-2"
                     points="275.56 504.65 250.86 525.62 252.25 542.86 269.73 553.12 296.99 525.85 275.56 504.65"/>
            <polygon class="cls-2" points="286.04 494.86 275.56 504.65 296.99 525.85 307.48 515.6 286.04 494.86"/>
            <polygon class="cls-3" points="316.8 525.85 307.48 515.6 269.73 553.12 316.8 554.11 316.8 525.85"/>
            <rect class="cls-2" x="316.8" y="525.85" width="26.8" height="28.25"/>
            <polygon class="cls-2"
                     points="310.27 475.52 286.04 494.86 316.8 525.85 343.59 525.85 343.59 492.77 326.35 492.77 310.27 475.52"/>
            <polygon class="cls-2" points="343.59 450.82 310.27 475.52 326.35 492.77 343.59 492.77 343.59 450.82"/>
            <rect class="cls-2" x="343.59" y="450.82" width="28.66" height="103.28"/>
            <rect class="cls-2" x="372.25" y="450.82" width="28.66" height="103.28"/>
            <polygon class="cls-2" points="427.48 517.93 400.91 517.93 400.91 554.11 427.48 547.99 427.48 517.93"/>
            <polygon class="cls-2" points="446.12 517.93 427.48 517.93 427.48 547.99 446.12 543.33 446.12 517.93"/>
            <polygon class="cls-2"
                     points="501.11 450.82 400.91 450.82 400.91 517.93 446.12 517.93 446.12 543.33 501.11 531.68 501.11 450.82"/>
            <polygon class="cls-2" points="501.11 396.07 427.48 396.07 343.59 450.82 501.11 450.82 501.11 396.07"/>
            <polygon class="cls-3" points="501.11 363.06 427.48 396.07 501.11 396.07 501.11 363.06"/>
            <polygon class="cls-2"
                     points="541.18 450.82 501.11 450.82 501.11 531.68 570.08 525.85 601.77 506.75 541.18 450.82"/>
            <polygon class="cls-2"
                     points="565.18 436.84 541.18 450.82 601.77 506.75 650 458.75 628.56 436.84 565.18 436.84"/>
            <polygon class="cls-2"
                     points="660.72 406.55 629.26 406.55 629.26 436.84 650 458.75 681.46 427.29 660.72 406.55"/>
            <rect class="cls-2" x="501.11" y="363.06" width="16.08" height="43.5"/>
            <rect class="cls-2" x="517.19" y="363.06" width="16.08" height="43.5"/>
            <rect class="cls-2" x="533.15" y="363.06" width="16.08" height="43.5"/>
            <rect class="cls-2" x="555.58" y="363.06" width="16.08" height="43.5"/>
            <rect class="cls-2" x="571.66" y="363.06" width="16.08" height="43.5"/>
            <rect class="cls-2" x="587.55" y="363.06" width="16.08" height="43.5"/>
            <rect class="cls-2" x="603.63" y="363.06" width="25.63" height="43.5"/>
            <polygon class="cls-2"
                     points="662.82 363.06 629.26 363.06 629.26 406.55 660.72 406.55 681.96 385.31 662.82 363.06"/>
            <path class="cls-2" d="M702.75,405.82,682,385.31l-9.24,9.24,20.74,20.74Z"/>
            <path class="cls-2" d="M681.46,427.29l12-12-20.74-20.74-12,12Q671.09,416.93,681.46,427.29Z"/>
            <rect class="cls-2" x="352.45" y="295.17" width="75.03" height="17.71"/>
            <polygon class="cls-2"
                     points="352.45 241.12 352.45 295.17 427.48 295.17 427.48 312.88 451.24 312.88 451.24 266.28 401.85 266.28 401.85 241.12 352.45 241.12"/>
            <rect class="cls-2" x="401.85" y="241.12" width="49.4" height="25.16"/>
            <rect class="cls-2" x="352.45" y="217.82" width="98.8" height="23.3"/>
            <rect class="cls-2" x="352.45" y="190.32" width="39.61" height="27.5"/>
            <rect class="cls-2" x="392.06" y="190.32" width="9.79" height="27.5"/>
            <rect class="cls-2" x="401.85" y="190.32" width="11.77" height="27.5"/>
            <rect class="cls-2" x="413.26" y="190.32" width="13.28" height="27.5"/>
            <rect class="cls-2" x="426.54" y="190.32" width="11.18" height="27.5"/>
            <rect class="cls-2" x="437.73" y="190.32" width="13.21" height="27.5"/>
            <rect class="cls-2" x="501.38" y="189.32" width="13.21" height="27.5"/>
            <rect class="cls-2" x="514.6" y="189.32" width="13.21" height="27.5"/>
            <rect class="cls-2" x="527.81" y="189.32" width="13.21" height="27.5"/>
            <rect class="cls-2" x="541.46" y="189.32" width="13.21" height="27.5"/>
            <rect class="cls-2" x="554.86" y="189.32" width="13.21" height="27.5"/>
            <rect class="cls-2" x="568.07" y="189.32" width="13.21" height="27.5"/>
            <rect class="cls-2" x="581.29" y="189.32" width="13.21" height="27.5"/>
            <polygon class="cls-2" points="501.11 241.12 501.38 216.81 594.5 216.81 594.5 241.12 501.11 241.12"/>
            <rect class="cls-2" x="501.38" y="241.12" width="78.32" height="22.37"/>
            <rect class="cls-2" x="501.11" y="263.48" width="24.12" height="26.1"/>
            <rect class="cls-2" x="501.11" y="289.04" width="24.12" height="26.1"/>
            <polygon class="cls-2"
                     points="579.7 289.58 579.7 263.49 525.22 263.49 525.22 315.13 501.11 315.13 501.11 335.25 607.36 335.25 607.36 289.58 579.7 289.58"/>
            <rect class="cls-2" x="607.36" y="289.58" width="21.9" height="17.71"/>
            <rect class="cls-2" x="607.36" y="307.29" width="21.9" height="27.96"/>
            <rect class="cls-2" x="616.45" y="190.32" width="10.95" height="50.8"/>
            <rect class="cls-2" x="627.4" y="190.32" width="10.95" height="50.8"/>
            <rect class="cls-2" x="696.84" y="190.32" width="26.56" height="56.85"/>
            <rect class="cls-2" x="723.4" y="190.32" width="22.17" height="56.85"/>
            <rect class="cls-2" x="682.26" y="190.32" width="14.58" height="56.85"/>
            <polygon class="cls-2"
                     points="660.72 190.32 638.35 190.32 638.35 241.12 627.4 241.12 627.4 263.49 660.72 263.49 660.72 190.32"/>
            <polygon class="cls-2"
                     points="696.84 263.49 660.72 263.49 660.72 190.32 682.26 190.32 682.26 247.17 696.84 247.17 696.84 263.49"/>
            <path class="cls-2" d="M638.35,289l-11,.54v-26.1h69.44V247.17h58.71v91.29L715,379.05l-43-43H638.35Z"/>
            <polygon class="cls-2" points="770.47 247.17 745.57 247.17 745.57 190.32 770.47 194.05 770.47 247.17"/>
            <polygon class="cls-2" points="796.1 247.17 770.47 247.17 770.47 194.05 796.1 198.71 796.1 247.17"/>
            <polygon class="cls-2" points="818.93 247.17 796.1 247.17 796.1 198.71 818.93 206.63 818.93 247.17"/>
            <polygon class="cls-2" points="850.62 222.94 818.93 247.17 818.93 206.63 850.62 222.94"/>
            <polygon class="cls-2" points="775.13 318.01 755.12 338.02 755.12 304.03 775.13 318.01"/>
            <polygon class="cls-2"
                     points="811.48 282.59 775.13 318.01 755.12 304.03 755.55 247.17 796.1 247.17 796.1 266.28 811.48 282.59"/>
            <polygon class="cls-2"
                     points="834.78 259.76 811.48 282.59 796.1 266.28 796.1 247.17 818.93 247.17 834.78 259.76"/>
            <polygon class="cls-2" points="848.29 247.17 834.78 259.76 818.93 247.17 836.18 233.99 848.29 247.17"/>
            <polygon class="cls-2" points="862.74 231.33 848.29 247.17 836.18 233.99 850.62 222.94 862.74 231.33"/>
            <path class="cls-2" d="M352.45,13.7V161.89H694.51V13.7Z"/>
            <rect class="cls-2" x="694.51" y="69.16" width="28.89" height="92.74"/>
            <rect class="cls-2" x="723.4" y="69.16" width="47.07" height="92.74"/>
            <polygon class="cls-2"
                     points="818.93 69.16 770.47 69.16 770.47 127.41 796.1 127.41 796.1 167.02 818.93 174.94 818.93 69.16"/>
            <polygon class="cls-2"
                     points="974.58 69.16 818.93 69.16 818.93 102.24 869.73 102.24 869.73 201.04 938.23 273.27 958.97 252.53 1017.92 252.53 974.58 69.16"/>
            <polygon class="cls-2" points="845.03 185.66 845.03 102.24 818.93 102.24 818.93 174.94 845.03 185.66"/>
            <path class="cls-2" d="M869.73,201,845,185.66V102.24h24.7Z"/>
            <path class="cls-2" d="M796.1,167l-25.63-5.13V127.41H796.1Z"/>
            <path class="cls-3" d="M1020.28,272.8l-82,.47L959,252.53h58.95Q1019.11,262.67,1020.28,272.8Z"/>
            <polygon class="cls-2" points="1026.31 307.29 1020.28 272.8 938.23 273.27 955.48 307.29 1026.31 307.29"/>
            <polygon class="cls-2" points="1007.91 338.46 1007.91 315.13 957.34 315.13 965.73 338.46 1007.91 338.46"/>
            <polygon class="cls-2" points="1041.22 363.06 1035.63 338.46 965.73 338.46 965.73 363.06 1041.22 363.06"/>
            <polygon class="cls-2" points="1047.75 388.84 965.73 388.84 965.73 363.06 1041.22 363.06 1047.75 388.84"/>
            <polygon class="cls-2" points="1057.53 427.29 965.73 427.29 965.73 388.84 1047.75 388.84 1057.53 427.29"/>
            <path class="cls-2" d="M965.73,458.75V427.29h49.86v36.06H992.76c-1.4,0-8.13,8.13-8.13,8.13Z"/>
            <polygon class="cls-2"
                     points="1026.31 463.35 1026.31 486.71 992.76 486.71 984.63 471.48 990.66 463.35 1026.31 463.35"/>
            <rect class="cls-2" x="992.76" y="486.71" width="22.83" height="13.05"/>
            <polygon class="cls-2"
                     points="1015.59 512.34 1015.59 499.76 992.76 499.76 990.66 515.13 1003.48 525.39 1015.59 512.34"/>
            <polygon class="cls-2"
                     points="1066.51 588.18 1003.94 525.62 1016.76 512.8 1016.76 486.71 1027.01 486.71 1027.01 463.35 1016.29 463.35 1016.29 427.29 1058.23 427.29 1082.93 542.75 1066.51 588.18"/>
            <polygon class="cls-2" points="903.63 273.27 912.37 286.9 890.7 309.97 879.16 298.44 903.63 273.27"/>
            <path class="cls-2" d="M857.32,321l21.85-22.58L890.7,310v53.09h-14l-11.34-11.34,11.51-11.52Z"/>
            <polygon class="cls-2" points="845.15 330.75 857.32 321.02 876.89 340.2 865.38 351.72 845.15 330.75"/>
            <polygon class="cls-3" points="925.65 309.97 890.7 309.97 912.37 286.9 925.65 309.97"/>
            <polygon class="cls-2" points="935.44 338.46 890.7 338.46 890.7 309.97 925.65 309.97 935.44 338.46"/>
            <rect class="cls-2" x="890.7" y="338.46" width="44.74" height="24.6"/>
            <rect class="cls-2" x="890.7" y="363.06" width="44.74" height="25.79"/>
            <rect class="cls-2" x="890.7" y="388.84" width="44.74" height="24.58"/>
            <rect class="cls-2" x="890.7" y="413.43" width="44.74" height="23.42"/>
            <polygon class="cls-2"
                     points="935.44 463.35 935.44 436.84 890.7 436.84 890.7 481.23 916.91 481.23 935.44 463.35"/>
            <rect class="cls-2" x="861.02" y="436.84" width="29.68" height="44.39"/>
            <rect class="cls-2" x="845.15" y="436.84" width="15.87" height="44.39"/>
            <polygon class="cls-2"
                     points="811.48 471.8 821.32 461.95 845.15 461.95 845.15 481.23 818.93 481.23 811.48 471.8"/>
            <polygon class="cls-2"
                     points="808.21 436.84 845.15 436.84 845.15 461.95 821.32 461.95 811.48 471.8 799.59 459.91 807.66 451.85 808.21 436.84"/>
            <polygon class="cls-2"
                     points="796.1 436.84 784.7 448.24 799.59 459.91 807.66 451.85 808.21 436.84 796.1 436.84"/>
            <path class="cls-2" d="M755.44,419.37,785,447.91l11.07-11.07H861V397.35H796.1l-9.21-9.21Z"/>
            <path class="cls-2" d="M818.93,388.14l-16.62-16.62-15.42,16.62,9.21,9.21h22.83Z"/>
            <polygon class="cls-2"
                     points="861.02 356.46 841 336.44 802.31 371.52 818.93 388.14 818.93 397.35 861.02 397.35 861.02 356.46"/>
            <polygon class="cls-2"
                     points="662.82 363.06 629.26 363.06 629.26 406.55 660.72 406.55 681.96 385.31 662.82 363.06"/>
        </g>
        <g id="Слой_5" data-name="Слой 5">
            <polygon class="cls-4"
                     points="15.52 338.46 157.42 338.46 157.42 436.14 182.58 496.96 154.62 554.11 74.23 554.11 15.52 338.46"/>
            <path class="cls-4" d="M74.23,554.11q14.34,40.27,28.66,80.56l53.83-53.83-2.1-26.73Z"/>
            <polygon class="cls-4"
                     points="187.48 338.46 260.18 338.46 260.18 468.3 211.94 492.77 187.48 429.85 187.48 338.46"/>
            <path class="cls-4" d="M288.84,338.46H260.18V468.3l51.72-39.15V393.5H288.84Z"/>
            <polygon class="cls-4"
                     points="352.45 338.46 352.45 403.38 311.9 429.15 311.9 393.5 288.84 393.5 288.84 338.46 352.45 338.46"/>
            <rect class="cls-4" x="352.45" y="338.46" width="30.06" height="24.6"/>
            <polygon class="cls-4" points="382.51 383.81 352.45 403.38 352.45 363.06 382.51 363.06 382.51 383.81"/>
            <polygon class="cls-4" points="444.72 338.46 382.51 338.46 382.51 363.06 418.16 363.06 444.72 338.46"/>
            <path class="cls-5" d="M382.51,383.81q17.82-10.38,35.65-20.75H382.51Z"/>
            <path class="cls-4" d="M136.45,666.82l71.3-64.31v64.31Z"/>
            <rect class="cls-4" x="207.75" y="602.51" width="25.16" height="64.31"/>
            <rect class="cls-4" x="232.91" y="602.51" width="27.26" height="64.31"/>
            <rect class="cls-4" x="260.18" y="602.51" width="28.66" height="64.31"/>
            <rect class="cls-4" x="288.84" y="602.51" width="27.96" height="64.31"/>
            <path class="cls-4" d="M373.3,666.82H316.8V602.51l56.62.7Z"/>
            <rect class="cls-4" x="373.42" y="603.21" width="55.22" height="63.61"/>
            <rect class="cls-4" x="428.64" y="603.21" width="13.28" height="19.57"/>
            <rect class="cls-4" x="441.92" y="603.21" width="13.28" height="19.57"/>
            <rect class="cls-4" x="455.2" y="603.21" width="13.28" height="19.57"/>
            <polygon class="cls-4"
                     points="483.87 602.51 483.87 622.78 494.58 622.78 494.58 666.82 651.17 666.82 651.17 551.48 631.36 531.68 483.87 602.51"/>
            <polygon class="cls-4"
                     points="637.65 525.85 657.46 545.66 666.31 536.8 676.1 546.59 709.18 513.5 679.36 483.68 637.65 525.85"/>
            <polygon class="cls-4"
                     points="701.5 461.08 679.13 483.45 734.12 538.44 766.5 538.44 766.5 525.39 701.5 461.08"/>
            <rect class="cls-4" x="700.74" y="444.6" width="39.19" height="13.29"
                  transform="translate(-108.09 641.52) rotate(-45)"/>
            <rect class="cls-4" x="712.85" y="453.49" width="39.19" height="19.73"
                  transform="translate(-113.11 653.63) rotate(-45)"/>
            <rect class="cls-4" x="725.97" y="467.78" width="39.19" height="17.39"
                  transform="translate(-118.55 666.75) rotate(-45)"/>
            <rect class="cls-4" x="744.2" y="477.62" width="39.19" height="34.17"
                  transform="translate(-126.1 684.98) rotate(-45)"/>
            <polygon class="cls-4"
                     points="807.05 509.54 789.73 492.93 762.02 520.64 766.5 525.39 807.05 525.39 807.05 509.54"/>
            <path class="cls-4"
                  d="M844.8,509.16H807.05V624.65H942.89V536.34l-26.68-26.68-23.88-.12.47,48.93H845.5Q845.14,533.82,844.8,509.16Z"/>
            <rect class="cls-4" x="845.15" y="509.16" width="24.35" height="49.32"/>
            <rect class="cls-4" x="869.5" y="509.16" width="23.07" height="49.32"/>
            <polygon class="cls-4"
                     points="970.39 533.82 942.89 536.34 942.89 571.99 956.64 571.99 982.15 546.48 970.39 533.82"/>
            <path class="cls-4" d="M995.09,558.47l-12.93-12L956.64,572H942.89v52.66l28.2-.23-.24-41Z"/>
            <path class="cls-4" d="M1005.57,569.89l-10.48-11.42-24.24,24.94.13,22.37Z"/>
            <path class="cls-4" d="M1044.83,608.63l-39.26-38.74L971,605.78l.11,18.64h44.39Z"/>
            <polygon class="cls-4"
                     points="275.56 504.65 250.86 525.62 252.25 542.86 269.73 553.12 296.99 525.85 275.56 504.65"/>
            <polygon class="cls-4" points="286.04 494.86 275.56 504.65 296.99 525.85 307.48 515.6 286.04 494.86"/>
            <polygon class="cls-5" points="316.8 525.85 307.48 515.6 269.73 553.12 316.8 554.11 316.8 525.85"/>
            <rect class="cls-4" x="316.8" y="525.85" width="26.8" height="28.25"/>
            <polygon class="cls-4"
                     points="310.27 475.52 286.04 494.86 316.8 525.85 343.59 525.85 343.59 492.77 326.35 492.77 310.27 475.52"/>
            <polygon class="cls-4" points="343.59 450.82 310.27 475.52 326.35 492.77 343.59 492.77 343.59 450.82"/>
            <rect class="cls-4" x="343.59" y="450.82" width="28.66" height="103.28"/>
            <rect class="cls-4" x="372.25" y="450.82" width="28.66" height="103.28"/>
            <polygon class="cls-4" points="427.48 517.93 400.91 517.93 400.91 554.11 427.48 547.99 427.48 517.93"/>
            <polygon class="cls-4" points="446.12 517.93 427.48 517.93 427.48 547.99 446.12 543.33 446.12 517.93"/>
            <polygon class="cls-4"
                     points="501.11 450.82 400.91 450.82 400.91 517.93 446.12 517.93 446.12 543.33 501.11 531.68 501.11 450.82"/>
            <polygon class="cls-4" points="501.11 396.07 427.48 396.07 343.59 450.82 501.11 450.82 501.11 396.07"/>
            <polygon class="cls-5" points="501.11 363.06 427.48 396.07 501.11 396.07 501.11 363.06"/>
            <polygon class="cls-4"
                     points="541.18 450.82 501.11 450.82 501.11 531.68 570.08 525.85 601.77 506.75 541.18 450.82"/>
            <polygon class="cls-4"
                     points="565.18 436.84 541.18 450.82 601.77 506.75 650 458.75 628.56 436.84 565.18 436.84"/>
            <polygon class="cls-4"
                     points="660.72 406.55 629.26 406.55 629.26 436.84 650 458.75 681.46 427.29 660.72 406.55"/>
            <rect class="cls-4" x="501.11" y="363.06" width="16.08" height="43.5"/>
            <rect class="cls-4" x="517.19" y="363.06" width="16.08" height="43.5"/>
            <rect class="cls-4" x="533.15" y="363.06" width="16.08" height="43.5"/>
            <rect class="cls-4" x="555.58" y="363.06" width="16.08" height="43.5"/>
            <rect class="cls-4" x="571.66" y="363.06" width="16.08" height="43.5"/>
            <rect class="cls-4" x="587.55" y="363.06" width="16.08" height="43.5"/>
            <rect class="cls-4" x="603.63" y="363.06" width="25.63" height="43.5"/>
            <polygon class="cls-4"
                     points="662.82 363.06 629.26 363.06 629.26 406.55 660.72 406.55 681.96 385.31 662.82 363.06"/>
            <path class="cls-4" d="M702.75,405.82,682,385.31l-9.24,9.24,20.74,20.74Z"/>
            <path class="cls-4" d="M681.46,427.29l12-12-20.74-20.74-12,12Q671.09,416.93,681.46,427.29Z"/>
            <rect class="cls-4" x="352.45" y="295.17" width="75.03" height="17.71"/>
            <polygon class="cls-4"
                     points="352.45 241.12 352.45 295.17 427.48 295.17 427.48 312.88 451.24 312.88 451.24 266.28 401.85 266.28 401.85 241.12 352.45 241.12"/>
            <rect class="cls-4" x="401.85" y="241.12" width="49.4" height="25.16"/>
            <rect class="cls-4" x="352.45" y="217.82" width="98.8" height="23.3"/>
            <rect class="cls-4" x="352.45" y="190.32" width="39.61" height="27.5"/>
            <rect class="cls-4" x="392.06" y="190.32" width="9.79" height="27.5"/>
            <rect class="cls-4" x="401.85" y="190.32" width="11.77" height="27.5"/>
            <rect class="cls-4" x="413.26" y="190.32" width="13.28" height="27.5"/>
            <rect class="cls-4" x="426.54" y="190.32" width="11.18" height="27.5"/>
            <rect class="cls-4" x="437.73" y="190.32" width="13.21" height="27.5"/>
            <rect class="cls-4" x="501.38" y="189.32" width="13.21" height="27.5"/>
            <rect class="cls-4" x="514.6" y="189.32" width="13.21" height="27.5"/>
            <rect class="cls-4" x="527.81" y="189.32" width="13.21" height="27.5"/>
            <rect class="cls-4" x="541.46" y="189.32" width="13.21" height="27.5"/>
            <rect class="cls-4" x="554.86" y="189.32" width="13.21" height="27.5"/>
            <rect class="cls-4" x="568.07" y="189.32" width="13.21" height="27.5"/>
            <rect class="cls-4" x="581.29" y="189.32" width="13.21" height="27.5"/>
            <polygon class="cls-4" points="501.11 241.12 501.38 216.81 594.5 216.81 594.5 241.12 501.11 241.12"/>
            <rect class="cls-4" x="501.38" y="241.12" width="78.32" height="22.37"/>
            <rect class="cls-4" x="501.11" y="263.48" width="24.12" height="26.1"/>
            <rect class="cls-4" x="501.11" y="289.04" width="24.12" height="26.1"/>
            <polygon class="cls-4"
                     points="579.7 289.58 579.7 263.49 525.22 263.49 525.22 315.13 501.11 315.13 501.11 335.25 607.36 335.25 607.36 289.58 579.7 289.58"/>
            <rect class="cls-4" x="607.36" y="289.58" width="21.9" height="17.71"/>
            <rect class="cls-4" x="607.36" y="307.29" width="21.9" height="27.96"/>
            <rect class="cls-4" x="616.45" y="190.32" width="10.95" height="50.8"/>
            <rect class="cls-4" x="627.4" y="190.32" width="10.95" height="50.8"/>
            <rect class="cls-4" x="696.84" y="190.32" width="26.56" height="56.85"/>
            <rect class="cls-4" x="723.4" y="190.32" width="22.17" height="56.85"/>
            <rect class="cls-4" x="682.26" y="190.32" width="14.58" height="56.85"/>
            <polygon class="cls-4"
                     points="660.72 190.32 638.35 190.32 638.35 241.12 627.4 241.12 627.4 263.49 660.72 263.49 660.72 190.32"/>
            <polygon class="cls-4"
                     points="696.84 263.49 660.72 263.49 660.72 190.32 682.26 190.32 682.26 247.17 696.84 247.17 696.84 263.49"/>
            <path class="cls-4" d="M638.35,289l-11,.54v-26.1h69.44V247.17h58.71v91.29L715,379.05l-43-43H638.35Z"/>
            <polygon class="cls-4" points="770.47 247.17 745.57 247.17 745.57 190.32 770.47 194.05 770.47 247.17"/>
            <polygon class="cls-4" points="796.1 247.17 770.47 247.17 770.47 194.05 796.1 198.71 796.1 247.17"/>
            <polygon class="cls-4" points="818.93 247.17 796.1 247.17 796.1 198.71 818.93 206.63 818.93 247.17"/>
            <polygon class="cls-4" points="850.62 222.94 818.93 247.17 818.93 206.63 850.62 222.94"/>
            <polygon class="cls-4" points="775.13 318.01 755.12 338.02 755.12 304.03 775.13 318.01"/>
            <polygon class="cls-4"
                     points="811.48 282.59 775.13 318.01 755.12 304.03 755.55 247.17 796.1 247.17 796.1 266.28 811.48 282.59"/>
            <polygon class="cls-4"
                     points="834.78 259.76 811.48 282.59 796.1 266.28 796.1 247.17 818.93 247.17 834.78 259.76"/>
            <polygon class="cls-4" points="848.29 247.17 834.78 259.76 818.93 247.17 836.18 233.99 848.29 247.17"/>
            <polygon class="cls-4" points="862.74 231.33 848.29 247.17 836.18 233.99 850.62 222.94 862.74 231.33"/>
            <path class="cls-4" d="M352.45,13.7V161.89H694.51V13.7Z"/>
            <rect class="cls-4" x="694.51" y="69.16" width="28.89" height="92.74"/>
            <rect class="cls-4" x="723.4" y="69.16" width="47.07" height="92.74"/>
            <polygon class="cls-4"
                     points="818.93 69.16 770.47 69.16 770.47 127.41 796.1 127.41 796.1 167.02 818.93 174.94 818.93 69.16"/>
            <polygon class="cls-4"
                     points="974.58 69.16 818.93 69.16 818.93 102.24 869.73 102.24 869.73 201.04 938.23 273.27 958.97 252.53 1017.92 252.53 974.58 69.16"/>
            <polygon class="cls-4" points="845.03 185.66 845.03 102.24 818.93 102.24 818.93 174.94 845.03 185.66"/>
            <path class="cls-4" d="M869.73,201,845,185.66V102.24h24.7Z"/>
            <path class="cls-4" d="M796.1,167l-25.63-5.13V127.41H796.1Z"/>
            <path class="cls-5" d="M1020.28,272.8l-82,.47L959,252.53h58.95Q1019.11,262.67,1020.28,272.8Z"/>
            <polygon class="cls-4" points="1026.31 307.29 1020.28 272.8 938.23 273.27 955.48 307.29 1026.31 307.29"/>
            <polygon class="cls-4" points="1007.91 338.46 1007.91 315.13 957.34 315.13 965.73 338.46 1007.91 338.46"/>
            <polygon class="cls-4" points="1041.22 363.06 1035.63 338.46 965.73 338.46 965.73 363.06 1041.22 363.06"/>
            <polygon class="cls-4" points="1047.75 388.84 965.73 388.84 965.73 363.06 1041.22 363.06 1047.75 388.84"/>
            <polygon class="cls-4" points="1057.53 427.29 965.73 427.29 965.73 388.84 1047.75 388.84 1057.53 427.29"/>
            <path class="cls-4" d="M965.73,458.75V427.29h49.86v36.06H992.76c-1.4,0-8.13,8.13-8.13,8.13Z"/>
            <polygon class="cls-4"
                     points="1026.31 463.35 1026.31 486.71 992.76 486.71 984.63 471.48 990.66 463.35 1026.31 463.35"/>
            <rect class="cls-4" x="992.76" y="486.71" width="22.83" height="13.05"/>
            <polygon class="cls-4"
                     points="1015.59 512.34 1015.59 499.76 992.76 499.76 990.66 515.13 1003.48 525.39 1015.59 512.34"/>
            <polygon class="cls-4"
                     points="1066.51 588.18 1003.94 525.62 1016.76 512.8 1016.76 486.71 1027.01 486.71 1027.01 463.35 1016.29 463.35 1016.29 427.29 1058.23 427.29 1082.93 542.75 1066.51 588.18"/>
            <polygon class="cls-4" points="903.63 273.27 912.37 286.9 890.7 309.97 879.16 298.44 903.63 273.27"/>
            <path class="cls-4" d="M857.32,321l21.85-22.58L890.7,310v53.09h-14l-11.34-11.34,11.51-11.52Z"/>
            <polygon class="cls-4" points="845.15 330.75 857.32 321.02 876.89 340.2 865.38 351.72 845.15 330.75"/>
            <polygon class="cls-5" points="925.65 309.97 890.7 309.97 912.37 286.9 925.65 309.97"/>
            <polygon class="cls-4" points="935.44 338.46 890.7 338.46 890.7 309.97 925.65 309.97 935.44 338.46"/>
            <rect class="cls-4" x="890.7" y="338.46" width="44.74" height="24.6"/>
            <rect class="cls-4" x="890.7" y="363.06" width="44.74" height="25.79"/>
            <rect class="cls-4" x="890.7" y="388.84" width="44.74" height="24.58"/>
            <rect class="cls-4" x="890.7" y="413.43" width="44.74" height="23.42"/>
            <polygon class="cls-4"
                     points="935.44 463.35 935.44 436.84 890.7 436.84 890.7 481.23 916.91 481.23 935.44 463.35"/>
            <rect class="cls-4" x="861.02" y="436.84" width="29.68" height="44.39"/>
            <rect class="cls-4" x="845.15" y="436.84" width="15.87" height="44.39"/>
            <polygon class="cls-4"
                     points="811.48 471.8 821.32 461.95 845.15 461.95 845.15 481.23 818.93 481.23 811.48 471.8"/>
            <polygon class="cls-4"
                     points="808.21 436.84 845.15 436.84 845.15 461.95 821.32 461.95 811.48 471.8 799.59 459.91 807.66 451.85 808.21 436.84"/>
            <polygon class="cls-4"
                     points="796.1 436.84 784.7 448.24 799.59 459.91 807.66 451.85 808.21 436.84 796.1 436.84"/>
            <path class="cls-4" d="M755.44,419.37,785,447.91l11.07-11.07H861V397.35H796.1l-9.21-9.21Z"/>
            <path class="cls-4" d="M818.93,388.14l-16.62-16.62-15.42,16.62,9.21,9.21h22.83Z"/>
            <polygon class="cls-4"
                     points="861.02 356.46 841 336.44 802.31 371.52 818.93 388.14 818.93 397.35 861.02 397.35 861.02 356.46"/>
            <polygon class="cls-4"
                     points="662.82 363.06 629.26 363.06 629.26 406.55 660.72 406.55 681.96 385.31 662.82 363.06"/>
        </g>
    </g>
</svg>